<svg width="20" height="26" viewBox="0 0 20 26" fill="none" xmlns="http://www.w3.org/2000/svg">
<path d="M4.64247 24.1756L4.61833 24.166L4.59315 24.1596C3.67489 23.9259 2.96489 23.1469 2.8497 22.1678L0.48712 2.08584C0.467242 1.91688 0.599257 1.76842 0.769384 1.76842H19.0726C19.2428 1.76842 19.3748 1.91688 19.3549 2.08584L16.9923 22.1678C16.8771 23.1469 16.1671 23.9259 15.2489 24.1596L15.2237 24.166L15.1996 24.1756C14.1039 24.6118 12.1654 24.9158 9.92101 24.9158C7.67662 24.9158 5.73817 24.6118 4.64247 24.1756Z" fill="#FFB901" stroke="#FFB901" stroke-width="0.8"/>
<path d="M19.3828 1.67169C19.4111 1.69557 19.4275 1.7133 19.4367 1.72481L19.4349 1.73772L18.7614 6.78924L18.7579 6.81556V6.84211C18.7579 6.8534 18.7545 6.89952 18.676 6.98483C18.5955 7.07228 18.4575 7.17587 18.246 7.28698C17.8238 7.50878 17.1867 7.72062 16.3657 7.90306C14.7303 8.26649 12.4515 8.49474 9.92105 8.49474C7.39058 8.49474 5.11184 8.26649 3.47639 7.90306C2.65542 7.72062 2.01828 7.50878 1.59613 7.28698C1.38464 7.17587 1.24665 7.07228 1.16612 6.98483C1.08757 6.89952 1.08421 6.8534 1.08421 6.84211V6.81556L1.0807 6.78924L0.407166 1.73772L0.405445 1.72481C0.414579 1.71331 0.430955 1.69557 0.459297 1.67169C0.545837 1.59878 0.697411 1.51019 0.930636 1.41512C1.39344 1.22647 2.08715 1.04805 2.97377 0.895186C4.74054 0.590571 7.19698 0.4 9.92105 0.4C12.6451 0.4 15.1016 0.590571 16.8683 0.895186C17.755 1.04805 18.4487 1.22647 18.9115 1.41512C19.1447 1.51019 19.2963 1.59878 19.3828 1.67169ZM0.395546 1.73927C0.395657 1.73905 0.395784 1.73881 0.39593 1.73855C0.395832 1.73881 0.395739 1.73904 0.395652 1.73926C0.39526 1.74022 0.39499 1.74069 0.394941 1.74069C0.394892 1.74069 0.395061 1.74022 0.395546 1.73927ZM19.4462 1.73859C19.4463 1.73884 19.4465 1.73907 19.4466 1.73927C19.447 1.74022 19.4472 1.74069 19.4472 1.74069C19.4471 1.74069 19.4468 1.74022 19.4465 1.73926C19.4464 1.73906 19.4463 1.73884 19.4462 1.73859Z" fill="white" stroke="#FFB901" stroke-width="0.8"/>
<path d="M19.4472 1.68036C19.4472 1.68036 19.447 1.68106 19.4462 1.68246C19.4467 1.68106 19.4471 1.68036 19.4472 1.68036ZM19.3828 1.67169C19.4013 1.68725 19.4147 1.70021 19.4243 1.71053C19.4147 1.72085 19.4013 1.7338 19.3828 1.74936C19.2963 1.82228 19.1447 1.91086 18.9115 2.00593C18.4487 2.19459 17.755 2.373 16.8683 2.52587C15.1016 2.83048 12.6451 3.02105 9.92105 3.02105C7.19698 3.02105 4.74054 2.83048 2.97377 2.52587C2.08715 2.373 1.39344 2.19459 0.930636 2.00593C0.697411 1.91086 0.545837 1.82228 0.459297 1.74936C0.440827 1.7338 0.427438 1.72085 0.417824 1.71053C0.427438 1.70021 0.440827 1.68725 0.459297 1.67169C0.545837 1.59878 0.697411 1.51019 0.930636 1.41512C1.39344 1.22647 2.08715 1.04805 2.97377 0.895186C4.74054 0.590571 7.19698 0.4 9.92105 0.4C12.6451 0.4 15.1016 0.590571 16.8683 0.895186C17.755 1.04805 18.4487 1.22647 18.9115 1.41512C19.1447 1.51019 19.2963 1.59878 19.3828 1.67169ZM0.394941 1.68036C0.395001 1.68036 0.39539 1.68107 0.395929 1.68251C0.39515 1.68108 0.39488 1.68036 0.394941 1.68036ZM0.394941 1.74069C0.39488 1.74069 0.39515 1.73998 0.39593 1.73855C0.395391 1.73998 0.395001 1.74069 0.394941 1.74069ZM19.4462 1.73859C19.447 1.73999 19.4472 1.74069 19.4472 1.74069C19.4471 1.74069 19.4467 1.74 19.4462 1.73859Z" fill="white" stroke="#FFB901" stroke-width="0.8"/>
</svg>
