<svg width="5" height="6" viewBox="0 0 5 6" fill="none" xmlns="http://www.w3.org/2000/svg">
<path d="M2.50003 0C1.83701 0 1.2011 0.249626 0.732205 0.693947C0.263413 1.13834 0 1.74105 0 2.3694C0 3.48281 1.33651 5.04947 2.05545 5.81091C2.16841 5.93117 2.33014 6 2.5 6C2.66986 6 2.8316 5.93117 2.94455 5.81091C3.66349 5.04954 5 3.48283 5 2.3694C5 1.74102 4.73661 1.13834 4.26779 0.693947C3.7989 0.24965 3.16302 0 2.50003 0ZM2.50003 3.53343C2.17353 3.53343 1.86047 3.41056 1.62957 3.1917C1.39875 2.97295 1.26901 2.67617 1.26901 2.36673C1.26901 2.05739 1.39874 1.76059 1.62957 1.54175C1.86048 1.323 2.17353 1.20003 2.50003 1.20003C2.82652 1.20003 3.13958 1.32299 3.37048 1.54175C3.6013 1.7606 3.73104 2.05739 3.73104 2.36673C3.73104 2.67617 3.60131 2.97296 3.37048 3.1917C3.13957 3.41055 2.82652 3.53343 2.50003 3.53343Z" fill="black"/>
</svg>
