<svg width="16" height="20" viewBox="0 0 16 20" fill="none" xmlns="http://www.w3.org/2000/svg">
<path d="M3.70223 18.2215L3.67945 18.2131L3.65582 18.2076C2.94462 18.0411 2.42509 17.4952 2.34183 16.8441L0.468063 2.18968C0.465872 2.17254 0.469979 2.15141 0.49234 2.12827C0.515529 2.10428 0.555808 2.08279 0.610226 2.08279H15.1266C15.181 2.08279 15.2213 2.10428 15.2445 2.12827C15.2668 2.15141 15.271 2.17254 15.2688 2.18968L13.395 16.8441C13.3117 17.4952 12.7922 18.0411 12.081 18.2076L12.0574 18.2131L12.0346 18.2215C11.1755 18.5362 9.6459 18.7579 7.86841 18.7579C6.09093 18.7579 4.56131 18.5362 3.70223 18.2215Z" fill="#FFB901" stroke="#FFB901" stroke-width="0.8"/>
<path d="M14.978 1.82109C15.1531 1.88675 15.2633 1.94601 15.3242 1.99113L14.7983 5.61973L14.7942 5.64827V5.65912C14.7895 5.66623 14.7802 5.67849 14.7626 5.69602C14.709 5.74958 14.6089 5.82047 14.4444 5.90001C14.1171 6.05822 13.6178 6.21158 12.9684 6.34436C11.6762 6.60857 9.87284 6.77497 7.86842 6.77497C5.864 6.77497 4.06068 6.60857 2.76845 6.34436C2.11904 6.21158 1.61972 6.05822 1.29244 5.90001C1.1279 5.82047 1.02782 5.74958 0.974213 5.69602C0.956671 5.67849 0.947321 5.66623 0.94265 5.65912V5.64827L0.938515 5.61973L0.412684 1.99113C0.473572 1.94601 0.58375 1.88675 0.758809 1.82109C1.11989 1.68566 1.66539 1.55621 2.36728 1.44487C3.76475 1.22318 5.7099 1.08421 7.86842 1.08421C10.0269 1.08421 11.9721 1.22318 13.3696 1.44487C14.0715 1.55621 14.6169 1.68566 14.978 1.82109ZM14.7983 5.65171C14.7984 5.65171 14.7982 5.65233 14.7975 5.65358L14.7983 5.65171ZM0.938511 5.65171C0.938561 5.65172 0.938885 5.65234 0.939332 5.65358L0.938511 5.65171ZM0.374024 2.02491C0.373916 2.0249 0.37467 2.02385 0.376613 2.02176C0.375104 2.02387 0.374133 2.02491 0.374024 2.02491ZM15.3602 2.02176C15.3622 2.02385 15.3629 2.0249 15.3628 2.02491C15.3627 2.02491 15.3617 2.02386 15.3602 2.02176Z" fill="white" stroke="#FFB901" stroke-width="0.8"/>
<path d="M15.3373 1.70584C15.3374 1.70584 15.3373 1.70648 15.337 1.70776L15.3373 1.70584ZM15.2857 1.63996C15.3215 1.67802 15.3328 1.70124 15.3361 1.71053C15.3328 1.71982 15.3215 1.74303 15.2857 1.78109C15.2238 1.84682 15.1129 1.92949 14.9357 2.02058C14.5823 2.2022 14.0448 2.37755 13.3473 2.52918C11.9587 2.83103 10.0215 3.02105 7.86842 3.02105C5.71537 3.02105 3.7781 2.83103 2.38958 2.52918C1.69206 2.37755 1.15456 2.2022 0.80119 2.02058C0.623966 1.92949 0.512994 1.84682 0.451121 1.78109C0.415296 1.74303 0.404018 1.71982 0.400751 1.71053C0.404018 1.70124 0.415296 1.67802 0.451121 1.63996C0.512994 1.57423 0.623966 1.49156 0.80119 1.40047C1.15456 1.21885 1.69206 1.04351 2.38958 0.891872C3.7781 0.59002 5.71537 0.4 7.86842 0.4C10.0215 0.4 11.9587 0.59002 13.3473 0.891872C14.0448 1.04351 14.5823 1.21885 14.9357 1.40047C15.1129 1.49156 15.2238 1.57423 15.2857 1.63996ZM0.399545 1.70584C0.399601 1.70585 0.399771 1.70649 0.399886 1.70776L0.399545 1.70584ZM0.399545 1.71521C0.399489 1.71521 0.399547 1.71458 0.399887 1.71329L0.399545 1.71521ZM15.337 1.71329C15.3373 1.71458 15.3374 1.71522 15.3373 1.71521L15.337 1.71329Z" fill="white" stroke="#FFB901" stroke-width="0.8"/>
</svg>
